<?xml version="1.0" encoding="utf-8"?>
<!-- Generator: Adobe Illustrator 28.3.0, SVG Export Plug-In . SVG Version: 6.00 Build 0)  -->
<svg version="1.1" id="图层_1" xmlns="http://www.w3.org/2000/svg" xmlns:xlink="http://www.w3.org/1999/xlink" x="0px" y="0px"
	 viewBox="0 0 1920 1080" style="enable-background:new 0 0 1920 1080;" xml:space="preserve">
<style type="text/css">
	.st0{display:none;}
	.st1{display:inline;}
	.st2{display:inline;fill-rule:evenodd;clip-rule:evenodd;fill-opacity:0.5;}
	.st3{display:inline;fill-rule:evenodd;clip-rule:evenodd;}
</style>
<g id="plyr-airplay" class="st0">
	<path class="st1" d="M16,1H2C1.4,1,1,1.4,1,2v10c0,0.6,0.4,1,1,1h3v-2H3V3h12v8h-2v2h3c0.6,0,1-0.4,1-1V2C17,1.4,16.6,1,16,1z"/>
	<path class="st1" d="M4,17h10l-5-6L4,17z"/>
</g>
<g id="plyr-captions-off" class="st0">
	<path class="st2" d="M1,1C0.4,1,0,1.4,0,2v11c0,0.6,0.4,1,1,1h4.6l2.7,2.7C8.5,16.9,8.7,17,9,17s0.5-0.1,0.7-0.3l2.7-2.7H17
		c0.6,0,1-0.4,1-1V2c0-0.6-0.4-1-1-1H1z M5.5,11.1c2,0,3-1.3,3.3-2.4L7.5,8.3C7.3,9,6.7,9.8,5.5,9.8C4.4,9.8,3.3,9,3.3,7.5
		c0-1.6,1.1-2.4,2.2-2.4c1.2,0,1.8,0.8,2,1.4l1.3-0.4C8.5,5,7.5,3.8,5.5,3.8c-1.9,0-3.6,1.4-3.6,3.7S3.5,11.1,5.5,11.1z M13.1,11.1
		c2,0,3-1.3,3.3-2.4l-1.3-0.4c-0.2,0.7-0.8,1.4-2,1.4c-1.1,0-2.2-0.8-2.2-2.3c0-1.6,1.1-2.4,2.2-2.4c1.2,0,1.8,0.8,1.9,1.4l1.3-0.4
		C16,5,15,3.8,13.1,3.8c-1.9,0-3.6,1.4-3.6,3.7S11.1,11.1,13.1,11.1z"/>
</g>
<g id="plyr-captions-on" class="st0">
	<path class="st3" d="M1,1C0.4,1,0,1.4,0,2v11c0,0.6,0.4,1,1,1h4.6l2.7,2.7C8.5,16.9,8.7,17,9,17s0.5-0.1,0.7-0.3l2.7-2.7H17
		c0.6,0,1-0.4,1-1V2c0-0.6-0.4-1-1-1H1z M5.5,11.1c2,0,3-1.3,3.3-2.4L7.5,8.3C7.3,9,6.7,9.8,5.5,9.8C4.4,9.8,3.3,9,3.3,7.5
		c0-1.6,1.1-2.4,2.2-2.4c1.2,0,1.8,0.8,2,1.4l1.3-0.4C8.5,5,7.5,3.8,5.5,3.8c-1.9,0-3.6,1.4-3.6,3.7S3.5,11.1,5.5,11.1z M13.1,11.1
		c2,0,3-1.3,3.3-2.4l-1.3-0.4c-0.2,0.7-0.8,1.4-2,1.4c-1.1,0-2.2-0.8-2.2-2.3c0-1.6,1.1-2.4,2.2-2.4c1.2,0,1.8,0.8,1.9,1.4l1.3-0.4
		C16,5,15,3.8,13.1,3.8c-1.9,0-3.6,1.4-3.6,3.7S11.1,11.1,13.1,11.1z"/>
</g>
<g id="plyr-download" class="st0">
	<path class="st1" d="M9,13c0.3,0,0.5-0.1,0.7-0.3L15.4,7L14,5.6l-4,4V1H8v8.6l-4-4L2.6,7l5.7,5.7C8.5,12.9,8.7,13,9,13z M2,15h14v2
		H2V15z"/>
</g>
<g id="plyr-enter-fullscreen" class="st0">
	<path class="st1" d="M10,3h3.6l-4,4L11,8.4l4-4V8h2V1h-7V3z M7,9.6l-4,4V10H1v7h7v-2H4.4l4-4L7,9.6z"/>
</g>
<g id="plyr-exit-fullscreen" class="st0">
	<path class="st1" d="M1,12h3.6l-4,4L2,17.4l4-4V17h2v-7H1V12z M16,0.6l-4,4V1h-2v7h7V6h-3.6l4-4L16,0.6z"/>
</g>
<g id="plyr-fast-forward" class="st0">
	<path class="st1" d="M7.9,7.2L0,1v16l7.9-6.2V17L18,9L7.9,1V7.2z"/>
</g>
<g id="plyr-logo-vimeo" class="st0">
	<path class="st1" d="M17,5.3c-0.1,1.6-1.2,3.7-3.3,6.4c-2.2,2.8-4,4.2-5.5,4.2c-0.9,0-1.7-0.9-2.4-2.6C5,10.9,4.4,6,3,6
		C2.9,6,2.5,6.3,1.8,6.8L1,5.8c0.8-0.7,3.5-3.4,4.7-3.5S7.7,3,8,4.8c0.3,2,0.8,6.1,1.8,6.1c0.9,0,2.5-3.4,2.6-4
		C12.5,6,12.1,5,10.1,5.8C10.9,3.2,12.4,2,14.6,2C16.3,2.1,17.1,3.2,17,5.3z"/>
</g>
<g id="plyr-logo-youtube" class="st0">
	<path class="st1" d="M16.8,5.8c-0.2-1.3-0.8-2.2-2.2-2.4C12.4,3,9,3,9,3S5.6,3,3.4,3.4C2,3.6,1.3,4.5,1.2,5.8C1,7.1,1,9,1,9
		s0,1.9,0.2,3.2s0.8,2.2,2.2,2.4C5.6,15,9,15,9,15s3.4,0,5.6-0.4c1.4-0.3,2-1.1,2.2-2.4S17,9,17,9S17,7.1,16.8,5.8z M7,12V6l5,3
		L7,12z"/>
</g>
<g id="plyr-muted">
	<path d="M3.8,6H0.7C0.3,6,0,6.3,0,6.8v4.5C0,11.7,0.3,12,0.7,12h3.1l4.1,3.9c0.5,0.3,1.1,0,1.1-0.6V2.8c0-0.6-0.6-1-1.1-0.6L3.8,6z
		"/>
	<g>
		<path d="M2.3,15.1L2.3,15.1c-0.2-0.1-0.2-0.4,0-0.5l9-10.6c0.1-0.2,0.4-0.2,0.5,0v0c0.2,0.1,0.2,0.4,0,0.5L2.9,15
			C2.7,15.2,2.5,15.2,2.3,15.1z"/>
		<path d="M2.6,15.7c-0.2,0-0.4-0.1-0.6-0.2l0,0c-0.4-0.3-0.4-0.9-0.1-1.2l9-10.6c0.2-0.2,0.4-0.3,0.6-0.3c0.2,0,0.5,0.1,0.6,0.2
			c0.4,0.3,0.4,0.9,0.1,1.2l-9,10.6C3.1,15.6,2.8,15.7,2.6,15.7z"/>
	</g>
</g>
<g id="plyr-pause" class="st0">
	<path class="st1" d="M6,1H3C2.4,1,2,1.4,2,2v14c0,0.6,0.4,1,1,1h3c0.6,0,1-0.4,1-1V2C7,1.4,6.6,1,6,1z M12,1c-0.6,0-1,0.4-1,1v14
		c0,0.6,0.4,1,1,1h3c0.6,0,1-0.4,1-1V2c0-0.6-0.4-1-1-1H12z"/>
</g>
<g id="plyr-pip" class="st0">
	<path class="st1" d="M13.3,3.3L7,9.6L8.4,11l6.3-6.3L17,7V1h-6L13.3,3.3z"/>
	<path class="st1" d="M13,15H3V5h5V3H2C1.4,3,1,3.4,1,4v12c0,0.6,0.4,1,1,1h12c0.6,0,1-0.4,1-1v-6h-2V15z"/>
</g>
<g id="plyr-play" class="st0">
	<path class="st1" d="M15.6,8.1L3.9,0.2C3.1-0.3,2,0.2,2,1.1v15.8c0,0.9,1.1,1.5,1.9,0.9l11.7-7.9C16.1,9.4,16.1,8.5,15.6,8.1
		L15.6,8.1z"/>
</g>
<g id="plyr-restart" class="st0">
	<path class="st1" d="M9.7,1.2l0.7,6.4l2.1-2.1c1.9,1.9,1.9,5.1,0,7c-0.9,1-2.2,1.5-3.5,1.5s-2.6-0.5-3.5-1.5c-1.9-1.9-1.9-5.1,0-7
		c0.6-0.6,1.4-1.1,2.3-1.3L7.2,2.3C6,2.6,4.9,3.2,4,4.1C1.3,6.8,1.3,11.2,4,14c1.3,1.3,3.1,2,4.9,2c1.9,0,3.6-0.7,4.9-2
		c2.7-2.7,2.7-7.1,0-9.9L16,1.9L9.7,1.2z"/>
</g>
<g id="plyr-rewind" class="st0">
	<path class="st1" d="M10.1,1L0,9l10.1,8v-6.2L18,17V1l-7.9,6.2V1z"/>
</g>
<g id="plyr-settings" class="st0">
	<path class="st1" d="M16.1,7.8c-1.1-0.3-1.7-1.4-1.5-2.4c0-0.2,0.1-0.4,0.2-0.5c0.3-0.5,0.2-1-0.1-1.3l-0.3-0.3
		c-0.3-0.3-0.8-0.4-1.3-0.1c-0.9,0.6-2.2,0.3-2.7-0.7c-0.1-0.2-0.2-0.4-0.2-0.5C10.1,1.3,9.7,1,9.2,1H8.8c-0.4,0-0.8,0.3-1,0.9
		C7.5,2.9,6.4,3.6,5.4,3.3C5.2,3.3,5,3.2,4.8,3.1c-0.5-0.3-1-0.2-1.3,0.1L3.2,3.5C2.9,3.8,2.8,4.3,3.1,4.8C3.7,5.8,3.4,7,2.4,7.6
		C2.2,7.7,2.1,7.7,1.9,7.8C1.3,7.9,1,8.3,1,8.8v0.4c0,0.4,0.3,0.8,0.9,1c1.1,0.3,1.7,1.4,1.5,2.4c0,0.2-0.1,0.4-0.2,0.5
		c-0.3,0.5-0.2,1,0.1,1.3l0.3,0.3c0.3,0.3,0.8,0.4,1.3,0.1c0.9-0.6,2.2-0.3,2.7,0.7c0.1,0.2,0.2,0.4,0.2,0.5c0.2,0.6,0.5,0.9,1,0.9
		h0.4c0.4,0,0.8-0.3,1-0.9c0.3-1.1,1.4-1.7,2.4-1.5c0.2,0,0.4,0.1,0.5,0.2c0.5,0.3,1,0.2,1.3-0.1l0.3-0.3c0.3-0.3,0.4-0.8,0.1-1.3
		c-0.6-0.9-0.3-2.2,0.7-2.7c0.2-0.1,0.4-0.2,0.5-0.2c0.6-0.2,0.9-0.5,0.9-1V8.8C17,8.3,16.7,7.9,16.1,7.8z M9,12c-1.7,0-3-1.3-3-3
		s1.3-3,3-3s3,1.3,3,3S10.7,12,9,12z"/>
</g>
<g id="plyr-volume">
	<path d="M0,0"/>
	<path d="M3.8,6H0.7C0.3,6,0,6.3,0,6.8v4.5C0,11.7,0.3,12,0.7,12h3.1l4.1,3.9c0.5,0.3,1.1,0,1.1-0.6V2.8c0-0.6-0.6-1-1.1-0.6L3.8,6z
		"/>
	<path d="M15.6,3.3c-0.4-0.4-1-0.4-1.4,0s-0.4,1,0,1.4C15.4,5.9,16,7.4,16,9s-0.6,3.1-1.8,4.3c-0.4,0.4-0.4,1,0,1.4
		c0.2,0.2,0.5,0.3,0.7,0.3c0.3,0,0.5-0.1,0.7-0.3C17.1,13.2,18,11.2,18,9S17.1,4.8,15.6,3.3z"/>
	<path d="M11.2,4.9c-0.3-0.3-0.7-0.3-1,0c-0.3,0.3-0.3,0.7,0,1c0.9,0.9,1.3,1.9,1.3,3.1s-0.4,2.2-1.3,3.1c-0.3,0.3-0.3,0.7,0,1
		c0.1,0.1,0.4,0.2,0.5,0.2c0.2,0,0.4-0.1,0.5-0.2c1.1-1.1,1.7-2.5,1.7-4.1S12.3,6,11.2,4.9z"/>
</g>
</svg>
